<svg width="1600" height="900" viewBox="0 0 1600 900" fill="none" xmlns="http://www.w3.org/2000/svg">
  <rect width="1600" height="900" fill="#05070B"/>
  <g opacity="0.7" filter="url(#blurA)">
    <circle cx="292" cy="184" r="188" fill="#2997FF"/>
  </g>
  <g opacity="0.55" filter="url(#blurB)">
    <circle cx="1260" cy="720" r="214" fill="#38BDF8"/>
  </g>
  <rect x="116" y="92" width="1368" height="716" rx="42" fill="url(#panel)" stroke="rgba(255,255,255,0.1)"/>
  <rect x="164" y="126" width="1272" height="62" rx="31" fill="rgba(255,255,255,0.05)" stroke="rgba(255,255,255,0.08)"/>
  <rect x="188" y="142" width="120" height="10" rx="5" fill="#F5F5F7"/>
  <rect x="188" y="160" width="176" height="8" rx="4" fill="#F5F5F7" fill-opacity="0.28"/>
  <rect x="184" y="224" width="1248" height="144" rx="34" fill="rgba(255,255,255,0.03)" stroke="rgba(255,255,255,0.08)"/>
  <rect x="214" y="256" width="162" height="12" rx="6" fill="rgba(255,255,255,0.08)"/>
  <rect x="214" y="290" width="420" height="46" rx="18" fill="#F5F5F7"/>
  <rect x="214" y="322" width="280" height="12" rx="6" fill="#F5F5F7" fill-opacity="0.3"/>
  <rect x="184" y="404" width="288" height="146" rx="30" fill="rgba(255,255,255,0.03)" stroke="rgba(255,255,255,0.08)"/>
  <rect x="184" y="404" width="288" height="6" rx="3" fill="#2997FF"/>
  <rect x="212" y="436" width="92" height="10" rx="5" fill="rgba(255,255,255,0.08)"/>
  <rect x="212" y="468" width="124" height="44" rx="16" fill="#F5F5F7"/>
  <rect x="500" y="404" width="288" height="146" rx="30" fill="rgba(255,255,255,0.03)" stroke="rgba(255,255,255,0.08)"/>
  <rect x="500" y="404" width="288" height="6" rx="3" fill="#8B5CF6"/>
  <rect x="528" y="436" width="110" height="10" rx="5" fill="rgba(255,255,255,0.08)"/>
  <rect x="528" y="468" width="126" height="44" rx="16" fill="#F5F5F7"/>
  <rect x="816" y="404" width="288" height="146" rx="30" fill="rgba(255,255,255,0.03)" stroke="rgba(255,255,255,0.08)"/>
  <rect x="816" y="404" width="288" height="6" rx="3" fill="#38BDF8"/>
  <rect x="844" y="436" width="120" height="10" rx="5" fill="rgba(255,255,255,0.08)"/>
  <rect x="844" y="468" width="126" height="44" rx="16" fill="#F5F5F7"/>
  <rect x="1132" y="404" width="300" height="146" rx="30" fill="rgba(255,255,255,0.03)" stroke="rgba(255,255,255,0.08)"/>
  <rect x="1132" y="404" width="300" height="6" rx="3" fill="#F59E0B"/>
  <rect x="1160" y="436" width="136" height="10" rx="5" fill="rgba(255,255,255,0.08)"/>
  <rect x="1160" y="468" width="126" height="44" rx="16" fill="#F5F5F7"/>
  <rect x="184" y="586" width="610" height="188" rx="34" fill="rgba(255,255,255,0.03)" stroke="rgba(255,255,255,0.08)"/>
  <rect x="214" y="620" width="148" height="10" rx="5" fill="rgba(255,255,255,0.08)"/>
  <rect x="214" y="660" width="540" height="10" rx="5" fill="rgba(255,255,255,0.05)"/>
  <rect x="214" y="690" width="420" height="10" rx="5" fill="url(#barA)"/>
  <rect x="214" y="714" width="320" height="10" rx="5" fill="url(#barA)"/>
  <rect x="214" y="738" width="470" height="10" rx="5" fill="url(#barA)"/>
  <rect x="826" y="586" width="606" height="188" rx="34" fill="rgba(255,255,255,0.03)" stroke="rgba(255,255,255,0.08)"/>
  <rect x="856" y="620" width="160" height="10" rx="5" fill="rgba(255,255,255,0.08)"/>
  <rect x="856" y="656" width="546" height="32" rx="16" fill="rgba(255,255,255,0.04)"/>
  <rect x="882" y="670" width="162" height="10" rx="5" fill="#F5F5F7"/>
  <rect x="856" y="700" width="546" height="32" rx="16" fill="rgba(255,255,255,0.04)"/>
  <rect x="882" y="714" width="214" height="10" rx="5" fill="#F5F5F7"/>
  <rect x="856" y="744" width="546" height="32" rx="16" fill="rgba(255,255,255,0.04)"/>
  <rect x="882" y="758" width="132" height="10" rx="5" fill="#F5F5F7"/>
  <defs>
    <linearGradient id="panel" x1="800" y1="92" x2="800" y2="808" gradientUnits="userSpaceOnUse">
      <stop stop-color="#131721" stop-opacity="0.92"/>
      <stop offset="1" stop-color="#090C12" stop-opacity="0.98"/>
    </linearGradient>
    <linearGradient id="barA" x1="214" y1="714" x2="754" y2="714" gradientUnits="userSpaceOnUse">
      <stop stop-color="#2997FF"/>
      <stop offset="1" stop-color="#8B5CF6"/>
    </linearGradient>
    <filter id="blurA" x="-96" y="-204" width="776" height="776" filterUnits="userSpaceOnUse" color-interpolation-filters="sRGB">
      <feGaussianBlur stdDeviation="100"/>
    </filter>
    <filter id="blurB" x="846" y="306" width="828" height="828" filterUnits="userSpaceOnUse" color-interpolation-filters="sRGB">
      <feGaussianBlur stdDeviation="100"/>
    </filter>
  </defs>
</svg>
