<svg width="1600" height="900" viewBox="0 0 1600 900" fill="none" xmlns="http://www.w3.org/2000/svg">
  <rect width="1600" height="900" fill="#05070B"/>
  <g opacity="0.8" filter="url(#blurA)">
    <circle cx="278" cy="178" r="180" fill="#2997FF"/>
  </g>
  <g opacity="0.55" filter="url(#blurB)">
    <circle cx="1296" cy="204" r="166" fill="#8B5CF6"/>
  </g>
  <g opacity="0.45" filter="url(#blurC)">
    <circle cx="1128" cy="716" r="212" fill="#38BDF8"/>
  </g>
  <rect x="120" y="96" width="1360" height="708" rx="42" fill="url(#panel)" stroke="rgba(255,255,255,0.1)"/>
  <rect x="168" y="130" width="1264" height="62" rx="31" fill="rgba(255,255,255,0.05)" stroke="rgba(255,255,255,0.08)"/>
  <rect x="194" y="145" width="34" height="34" rx="17" fill="#10131B" stroke="rgba(255,255,255,0.08)"/>
  <rect x="245" y="148" width="126" height="10" rx="5" fill="#F5F5F7" fill-opacity="0.92"/>
  <rect x="245" y="166" width="174" height="8" rx="4" fill="#F5F5F7" fill-opacity="0.3"/>
  <rect x="826" y="148" width="72" height="26" rx="13" fill="rgba(255,255,255,0.04)"/>
  <rect x="910" y="148" width="86" height="26" rx="13" fill="rgba(255,255,255,0.04)"/>
  <rect x="1008" y="148" width="72" height="26" rx="13" fill="rgba(255,255,255,0.04)"/>
  <rect x="1092" y="148" width="80" height="26" rx="13" fill="rgba(255,255,255,0.04)"/>
  <rect x="1184" y="142" width="220" height="38" rx="19" fill="url(#cta)"/>
  <rect x="184" y="232" width="748" height="288" rx="34" fill="rgba(255,255,255,0.03)" stroke="rgba(255,255,255,0.08)"/>
  <rect x="214" y="266" width="186" height="18" rx="9" fill="rgba(255,255,255,0.08)"/>
  <rect x="214" y="314" width="548" height="72" rx="18" fill="#F5F5F7"/>
  <rect x="214" y="406" width="442" height="18" rx="9" fill="#F5F5F7" fill-opacity="0.5"/>
  <rect x="214" y="438" width="334" height="18" rx="9" fill="#F5F5F7" fill-opacity="0.32"/>
  <rect x="214" y="482" width="184" height="44" rx="22" fill="url(#cta)"/>
  <rect x="414" y="482" width="184" height="44" rx="22" fill="rgba(255,255,255,0.05)" stroke="rgba(255,255,255,0.1)"/>
  <rect x="966" y="232" width="422" height="288" rx="34" fill="rgba(255,255,255,0.03)" stroke="rgba(255,255,255,0.08)"/>
  <rect x="994" y="260" width="366" height="204" rx="24" fill="#0F131C"/>
  <rect x="1022" y="286" width="138" height="10" rx="5" fill="rgba(255,255,255,0.08)"/>
  <rect x="1022" y="320" width="254" height="42" rx="16" fill="#F5F5F7"/>
  <rect x="1022" y="380" width="288" height="12" rx="6" fill="#F5F5F7" fill-opacity="0.4"/>
  <rect x="1022" y="404" width="214" height="12" rx="6" fill="#F5F5F7" fill-opacity="0.25"/>
  <rect x="1022" y="436" width="112" height="28" rx="14" fill="rgba(41,151,255,0.14)" stroke="rgba(41,151,255,0.3)"/>
  <rect x="184" y="552" width="1204" height="206" rx="34" fill="rgba(255,255,255,0.03)" stroke="rgba(255,255,255,0.08)"/>
  <rect x="216" y="586" width="182" height="12" rx="6" fill="rgba(255,255,255,0.08)"/>
  <rect x="216" y="620" width="280" height="40" rx="16" fill="#F5F5F7"/>
  <rect x="216" y="688" width="274" height="18" rx="9" fill="#F5F5F7" fill-opacity="0.28"/>
  <rect x="564" y="596" width="250" height="116" rx="26" fill="rgba(255,255,255,0.04)" stroke="rgba(255,255,255,0.08)"/>
  <rect x="592" y="626" width="134" height="10" rx="5" fill="rgba(255,255,255,0.08)"/>
  <rect x="592" y="652" width="188" height="14" rx="7" fill="#F5F5F7" fill-opacity="0.74"/>
  <rect x="592" y="684" width="126" height="12" rx="6" fill="#2997FF" fill-opacity="0.74"/>
  <rect x="850" y="596" width="250" height="116" rx="26" fill="rgba(255,255,255,0.04)" stroke="rgba(255,255,255,0.08)"/>
  <rect x="878" y="626" width="134" height="10" rx="5" fill="rgba(255,255,255,0.08)"/>
  <rect x="878" y="652" width="188" height="14" rx="7" fill="#F5F5F7" fill-opacity="0.74"/>
  <rect x="878" y="684" width="126" height="12" rx="6" fill="#8B5CF6" fill-opacity="0.74"/>
  <rect x="1136" y="596" width="220" height="116" rx="26" fill="rgba(255,255,255,0.04)" stroke="rgba(255,255,255,0.08)"/>
  <rect x="1164" y="626" width="100" height="10" rx="5" fill="rgba(255,255,255,0.08)"/>
  <rect x="1164" y="652" width="136" height="34" rx="14" fill="#F5F5F7"/>
  <defs>
    <linearGradient id="panel" x1="800" y1="96" x2="800" y2="804" gradientUnits="userSpaceOnUse">
      <stop stop-color="#131721" stop-opacity="0.92"/>
      <stop offset="1" stop-color="#090C12" stop-opacity="0.98"/>
    </linearGradient>
    <linearGradient id="cta" x1="0" y1="0" x2="1" y2="1">
      <stop stop-color="#3AA0FF"/>
      <stop offset="1" stop-color="#1070D8"/>
    </linearGradient>
    <filter id="blurA" x="-102" y="-202" width="760" height="760" filterUnits="userSpaceOnUse" color-interpolation-filters="sRGB">
      <feGaussianBlur stdDeviation="100"/>
    </filter>
    <filter id="blurB" x="930" y="-162" width="732" height="732" filterUnits="userSpaceOnUse" color-interpolation-filters="sRGB">
      <feGaussianBlur stdDeviation="100"/>
    </filter>
    <filter id="blurC" x="716" y="304" width="824" height="824" filterUnits="userSpaceOnUse" color-interpolation-filters="sRGB">
      <feGaussianBlur stdDeviation="100"/>
    </filter>
  </defs>
</svg>
